<svg width="45" height="45" viewBox="0 0 45 45" fill="none" xmlns="http://www.w3.org/2000/svg">
<g clip-path="url(#clip0_192_520)">
<path d="M15.3809 15.3809C16.207 14.5635 17.543 14.5635 18.29 15.3809L22.4209 19.5205L26.6309 15.3809C27.457 14.5635 28.793 14.5635 29.54 15.3809C30.4365 16.207 30.4365 17.543 29.54 18.29L25.4795 22.4209L29.54 26.6309C30.4365 27.457 30.4365 28.793 29.54 29.54C28.793 30.4365 27.457 30.4365 26.6309 29.54L22.4209 25.4795L18.29 29.54C17.543 30.4365 16.207 30.4365 15.3809 29.54C14.5635 28.793 14.5635 27.457 15.3809 26.6309L19.5205 22.4209L15.3809 18.29C14.5635 17.543 14.5635 16.207 15.3809 15.3809ZM45 22.5C45 34.9277 34.9277 45 22.5 45C10.0723 45 0 34.9277 0 22.5C0 10.0723 10.0723 0 22.5 0C34.9277 0 45 10.0723 45 22.5ZM22.5 4.21875C12.4014 4.21875 4.21875 12.4014 4.21875 22.5C4.21875 32.5986 12.4014 40.7812 22.5 40.7812C32.5986 40.7812 40.7812 32.5986 40.7812 22.5C40.7812 12.4014 32.5986 4.21875 22.5 4.21875Z" fill="white"/>
</g>
<defs>
<clipPath id="clip0_192_520">
<rect width="45" height="45" fill="white"/>
</clipPath>
</defs>
</svg>
