<svg width="34" height="34" viewBox="0 0 34 34" fill="none" xmlns="http://www.w3.org/2000/svg">
<circle cx="17" cy="17" r="16" stroke="white" stroke-width="2"/>
<path d="M10.472 20.0237L16.3735 25.8221C16.6184 26.0627 16.9418 26.1967 17.2781 26.1967C17.6145 26.1967 17.9378 26.0627 18.1828 25.8221L24.0842 20.0237C25.0771 19.051 25.6388 17.6865 25.6388 16.2601V16.0608C25.6388 13.6583 23.9895 11.6098 21.7393 11.2145C20.2501 10.9533 18.7347 11.4654 17.67 12.5859L17.2781 12.9984L16.8862 12.5859C15.8216 11.4654 14.3062 10.9533 12.8169 11.2145C10.5668 11.6098 8.91748 13.6583 8.91748 16.0608V16.2601C8.91748 17.6865 9.47921 19.051 10.472 20.0237Z" fill="white"/>
</svg>
