<svg width="1431" height="515" viewBox="0 0 1431 515" fill="none" xmlns="http://www.w3.org/2000/svg">
<path fill-rule="evenodd" clip-rule="evenodd" d="M412.053 196.932C415.382 198.51 420.001 201.095 422.318 202.676C426.247 205.359 427.024 205.598 433.97 206.269C448.301 207.653 459.914 212.116 470.621 220.355C476.624 224.973 479.611 228.441 503.18 258.153L524.37 284.867L550.827 289.31C598.437 297.304 609.855 297.049 628.744 287.566C638.661 282.586 638.969 281.656 631.275 279.921C623.596 278.191 616.19 280.71 608.894 287.536C603.958 292.153 600.827 293.066 598.014 290.707C588.594 282.807 581.087 275.881 579.583 273.7C553.174 235.414 611.921 193.207 659.089 216.579C690.498 232.143 704.405 272.698 688.841 303.338L687.461 306.053L693.144 313.456C720.715 349.366 726.777 377.354 716.311 420.429L713.365 432.55L716.15 435.826C726.217 447.675 726.105 447.018 723.658 479.855C721.77 505.19 719.676 509.938 708.659 513.868C703.908 515.563 679.801 515.277 676.872 513.492C669.663 509.096 674.744 495.668 685.648 490.3L690.268 488.026L690.778 481.913C692.248 464.269 690.691 461.852 668.408 447.168C649.485 434.698 645.503 430.932 637.796 418.207C626.513 399.579 614.584 395.707 598.531 405.459C583.175 414.787 572.594 415.95 536.449 412.281C524.723 411.091 514.45 410.117 513.619 410.115C512.125 410.113 512.105 410.373 511.657 435.978C511.101 467.745 511.611 465.411 500.253 488.205C486.872 515.06 487.078 514.907 464.315 514.907C448.502 514.906 446.693 514.42 444.38 509.546C440.882 502.173 446.19 493.506 456.861 489.17L460.852 487.548L464.288 474.913L457.668 404.133L450.625 396.548C427.726 371.885 425.63 367.57 415.069 323.32C411.425 308.054 408.289 295.029 408.1 294.375C407.801 293.338 405.988 293.152 393.87 292.912C373.988 292.521 370.475 290.752 360.788 276.262C351.785 262.792 351.827 262.697 371.451 252.499L384.539 245.696L386.795 235.255C389.28 223.746 389.352 223.622 396.217 218.789C398.814 216.96 401.054 215.377 401.193 215.272C401.331 215.165 400.413 211.759 399.152 207.701C394.972 194.248 399.108 190.795 412.053 196.932ZM416.17 219.859C419.196 229.445 419.289 231.8 416.735 234.167C413.211 237.433 408.688 235.955 406.475 230.814L405.277 228.032L400.45 231.104L402.683 232.852C406.883 236.139 404.704 243.89 399.579 243.89C397.992 243.89 397.689 244.354 396.873 248.045C395.635 253.636 394.231 254.863 381.428 261.534C375.465 264.64 370.471 267.287 370.329 267.416C369.508 268.166 376.722 276.771 379.581 278.451C382.839 280.367 383.034 280.389 398.849 280.635C421.646 280.991 427.562 279.242 437.322 269.265C443.299 263.157 445.946 262.361 449.422 265.627C455.643 271.472 442.319 285.922 426.055 290.97C423.173 291.864 420.815 292.824 420.815 293.103C420.815 294.325 433.227 345.156 434.519 349.228C438.43 361.546 444.508 371.121 457.037 384.697C471.632 400.512 469.036 390.807 474.415 449.672L476.807 475.861L474.319 485.807C471.575 496.774 469.792 499.712 465.86 499.749C464.736 499.759 462.516 500.383 460.925 501.135L458.035 502.504L467.643 502.562C476.862 502.618 477.323 502.55 478.987 500.886C480.777 499.095 496.597 468.091 498.015 463.594C498.528 461.969 499.093 443.754 499.595 412.643C500.496 356.915 500.234 358.801 507.079 358.801C512.252 358.801 512.599 360.126 512.599 379.843V397.077L514.225 397.414C529.427 400.56 569.618 402.678 577.217 400.735C582.635 399.349 584.757 398.42 596.617 392.24C602.937 388.947 611.447 387.253 617.492 388.084C621.451 388.629 621.382 388.715 619.959 385.014C612.003 364.312 619.784 326.279 631.978 326.279C638.059 326.279 638.902 331.348 634.4 340.85C626.185 358.194 626.961 373.701 636.946 391.684C653.696 421.848 654.543 422.829 676.271 437.208C701.407 453.842 703.427 456.992 703.363 479.465C703.317 495.998 702.155 499.697 696.992 499.749C695.943 499.759 693.783 500.383 692.193 501.135L689.302 502.504L696.385 502.562C709.347 502.669 709.497 502.415 711.37 477.115C713.378 449.994 713.633 452.522 708.258 446.179C698.958 435.203 699.208 436.505 703.369 420.66C712.88 384.44 709.253 358.191 691.125 332.044C675.286 309.201 663.845 296.856 652.583 290.459L649.693 288.818L644.926 292.436C629.246 304.336 603.948 309.912 580.045 306.737C571.96 305.663 522.872 297.402 519.683 296.579C517.277 295.958 514.696 292.975 493.787 266.65C464.476 229.746 460.028 225.62 444.407 220.835C437.657 218.768 437.391 218.803 438.21 221.661C439.987 227.858 438.331 232.054 433.824 232.775C430.622 233.287 427.646 231.141 426.925 227.8C425.798 222.573 417.074 212.09 413.854 212.09C413.779 212.09 414.823 215.586 416.17 219.859ZM614.382 224.564C586.322 233.621 577.568 254.518 594.863 271.158L601.046 277.107L603.257 275.307C620.679 261.128 647.444 266.875 673.38 290.365L678.708 295.191L680.392 290.318C682.983 282.817 682.826 266.882 680.079 258.705C670.937 231.484 641.056 215.955 614.382 224.564ZM411.392 244.026C412.312 245.014 412.865 246.59 412.865 248.224C412.865 256.394 399.47 259.303 397.997 251.454C396.807 245.11 407.089 239.408 411.392 244.026Z" fill="#FBC2B1"/>
<path fill-rule="evenodd" clip-rule="evenodd" d="M62.3025 354.792C73.7486 357.712 89.7476 375.313 99.1646 395.345C100.808 398.839 117.968 406.091 128.083 407.565C131.533 408.068 133.418 408.012 139.447 407.225C214.545 397.429 226.121 396.425 235.678 398.879C260.063 405.139 276.31 430.96 268.802 451.521C268.059 453.554 266.829 456.862 266.068 458.872C265.205 461.151 264.567 464.132 264.373 466.795C263.943 472.698 261.916 474.795 258.16 473.225C254.924 471.873 254.39 465.757 256.826 457.932C258.293 453.218 257.89 453.79 254.817 460.782C251.008 469.448 251.02 469.548 256.618 475.979C260.713 480.684 260.838 481.701 257.92 486.616C253.466 494.119 249.412 504.662 249.412 508.742C249.412 510.825 248.549 513.057 247.411 513.923C245.72 515.207 225.458 514.904 223.064 513.558C215.301 509.195 218.153 496.618 227.101 495.759L229.656 495.513L232.469 490.061C236.217 482.796 236.184 482.643 229.272 475.217C226.346 472.074 223.085 468.248 222.024 466.716L220.096 463.93L216.927 464.24C194.939 466.397 179.762 469.938 157.308 478.151C138.698 484.958 132.762 486.647 127.458 486.647C125.068 486.647 125.306 486.098 123.942 494.759C120.999 513.434 119.844 514.643 104.944 514.643C96.736 514.643 95.4209 514.522 93.611 513.598C84.8011 509.104 88.8849 494.606 98.9706 494.573C100.373 494.569 100.567 493.755 100.171 489.532L99.8022 485.59L93.3932 482.447C72.4937 472.199 63.3525 459.511 54.7449 428.807L52.2277 419.828L48.8193 416.411C44.5753 412.155 42.8005 409.592 40.2029 403.97C37.7283 398.615 37.4294 398.437 30.8961 398.426C18.0031 398.407 10.7693 394.081 3.52403 382.056C-0.199368 375.877 -0.861971 373.048 1.01697 371.355C2.24413 370.248 2.73635 370.15 16.1019 368.334C29.0645 366.574 30.1084 366.165 31.8142 362.186C34.2692 356.458 51.9883 352.161 62.3025 354.792ZM46.9864 363.821C45.3468 364.247 43.217 364.921 42.2535 365.317L40.5017 366.037L43.0128 367.152C50.9748 370.691 45.603 377.738 37.3503 374.58C34.5762 373.519 34.251 373.496 32.6567 374.256C30.5729 375.25 27.2626 375.912 18.4744 377.089L11.7659 377.989L12.5888 379.579C16.0167 386.208 21.4784 389.061 31.508 389.464C42.1832 389.892 44.0142 391.038 48.3636 400.019C49.7003 402.779 51.3818 405.75 52.0992 406.622L53.4048 408.206L53.4237 406.473C53.4481 404.246 54.9842 399.713 57.9503 393.112C60.619 387.175 60.7306 386.298 59.2532 382.852C57.2262 378.123 58.544 375.193 62.6967 375.193C66.1726 375.193 68.7081 379.343 69.1692 385.786C69.4086 389.139 69.2896 389.567 65.9204 397.472C62.028 406.603 61.8387 407.696 63.7575 409.976C67.9867 415.002 78.3989 409.141 79.5686 401.075C80.7566 392.889 89.4893 393.659 88.5502 401.868C87.1148 414.41 70.844 425.359 61.8773 419.817C61.3891 419.515 61.4702 419.819 65.6744 434.086C71.3795 453.443 79.6443 464.668 94.2479 472.889C97.4108 474.67 97.7542 474.593 96.4926 472.385C94.2573 468.475 98.1558 464.253 102.271 466.128C105.572 467.632 108.906 480.603 109.037 492.458C109.13 500.819 108.612 501.444 99.9266 503.454C98.8435 503.704 98.0078 504.249 97.907 504.772C97.7529 505.573 98.4777 505.663 105.125 505.663H112.515L113.657 500.802C116.909 486.947 117.817 467.927 115.554 461.031C114.041 456.417 115.699 453.651 119.773 453.995C123.548 454.314 125.231 459.001 125.667 470.404L125.944 477.668H127.658C130.879 477.668 139.277 475.146 154.597 469.581C176.749 461.533 188.461 458.696 211.731 455.742L214.458 455.396L211.251 449.29C206.666 440.56 206.95 436.255 212.112 436.255C214.603 436.255 215.413 437.088 217.686 441.992C222.095 451.5 229.293 462.106 236.514 469.735C245.963 479.718 246.309 483.695 238.915 497.312C235.245 504.07 234.594 504.606 230.053 504.606C228.789 504.606 227.755 504.852 227.755 505.151C227.755 505.503 230.019 505.643 234.16 505.547L240.566 505.399L241.483 501.965C242.784 497.099 244.796 492.041 247.515 486.804L249.862 482.282L247.316 479.221C241.96 472.785 241.764 467.89 246.443 457.399C254.156 440.104 256.064 428.32 252.341 420.972C248.286 412.968 237.846 407.268 225.906 406.538C220.68 406.219 180.439 410.704 146.409 415.398C127.564 417.998 119.129 416.595 101.203 407.88C93.7807 404.271 93.8611 404.353 88.7233 395.266C73.4038 368.169 62.3282 359.824 46.9864 363.821ZM258.161 453.105C257.933 453.765 258.085 453.667 258.568 452.841C259.517 451.217 261.569 445.051 261.541 443.906C261.529 443.446 260.847 445.089 260.023 447.559C259.2 450.029 258.361 452.524 258.161 453.105Z" fill="#FBC2B1"/>
<path fill-rule="evenodd" clip-rule="evenodd" d="M832.915 2.21088C829.163 3.59537 822.184 7.28792 817.406 10.4183C812.628 13.5469 806.796 16.4346 804.448 16.8344C799.869 17.6148 759.497 21.6269 756.235 21.6269C746.6 21.6269 744.211 34.7629 750.458 53.4108C760.537 83.4924 766.405 89.7339 795.556 101.382C824.039 112.766 834.341 120.256 841.903 135.076C846.828 144.733 847.428 148.169 848.643 173.709C851.327 230.07 865.058 263.862 892.626 281.946C900.163 286.89 913.138 308.521 917.335 323.136C921.127 336.346 932.03 410.277 932.006 422.634C931.964 445.647 924.727 472.341 918.142 473.789C904.828 476.713 898.899 494.228 907.515 505.182C917.622 518.031 970.424 515.753 978.859 502.105L981.587 497.692L992.641 498.526C1015.63 500.262 1023.63 490.603 1015.06 471.439C1009.04 457.961 1008.69 447.297 1013.03 409.676C1016.18 382.449 1016.98 369.636 1017.01 346.089L1017.05 316.603L1039.56 315.83C1071.16 314.746 1096.94 308.841 1123.35 296.639L1133.25 292.066L1145.94 306.978C1152.92 315.18 1168.4 331.207 1180.33 342.596C1221.41 381.798 1235.67 404.378 1240.69 438.178C1243.39 456.358 1242.92 457.374 1229.38 462.687C1194.14 476.511 1195.24 507.111 1230.94 506.159C1244.17 505.807 1244.52 505.876 1249.04 509.843C1255.24 515.285 1258.76 515.702 1285.92 514.199C1323.19 512.137 1329.76 505.505 1323.32 476.483C1320.31 462.908 1320.22 461.005 1321.38 432.575C1322.04 416.23 1322.58 394.264 1322.58 383.762V364.666L1313.52 342.161C1298.68 305.328 1297.33 295.921 1302.91 268.506C1308.36 241.729 1307.06 204.781 1299.91 183.479C1296.14 172.229 1296.65 171.513 1315.07 162.23C1375.07 132.004 1415.01 92.2742 1428.13 49.7845C1436.12 23.8913 1424.76 11.9721 1411.69 32.5387C1390.24 66.2919 1347.28 97.8593 1291.81 120.62C1257.84 134.561 1251.38 135.754 1231.88 131.679C1210.98 127.312 1189.21 126.46 1109.91 126.9C975.517 127.649 951.296 117.624 925.101 50.4061C915.689 26.257 908.171 17.023 891.564 9.21364C873.491 0.712917 845.906 -2.57983 832.915 2.21088ZM866.857 19.572C890.656 24.6141 897.951 31.5819 909.828 60.6178C916.31 76.4669 916.276 78.3717 909.21 93.2344C891.66 130.158 869.261 118.567 882.852 79.5956C890.365 58.0531 887.318 36.631 876.742 36.631C869.109 36.631 867.447 39.8627 868.512 52.6286C869.348 62.6727 869.069 64.5495 864.981 76.3395C848.958 122.562 884.769 155.425 913.102 120.496C916.745 116.006 921.614 108.951 923.923 104.818L928.12 97.3076L936.441 106.002C968.317 139.312 994.804 145.239 1109.12 144.642C1188.78 144.227 1208.42 145.003 1229.14 149.396C1244.66 152.685 1257.96 152.158 1270.85 147.743C1310.83 134.041 1351.3 113.689 1376.83 94.4496L1385.32 88.0457L1375.78 97.9082C1358.85 115.384 1333.8 132.62 1300.46 149.717C1279.53 160.455 1276.19 168.013 1282.94 189.377C1289.48 210.087 1290.54 240.05 1285.58 263.732C1278.77 296.168 1280.77 310.164 1298.34 353.073L1305.88 371.485L1305.01 393.309C1302.32 461.077 1302.35 466.191 1305.46 479.24C1309.41 495.771 1309.67 495.569 1282.84 496.726C1256.17 497.879 1255.1 496.566 1274.65 486.696C1287.97 479.976 1289.63 475.523 1289.62 446.504C1289.62 401.79 1278.96 381.582 1228.87 331.249C1174.59 276.703 1152.27 241.368 1142.65 194.744C1141.06 187.067 1127.9 186.763 1126 194.36C1123.96 202.476 1131.18 226.77 1142.09 248.521C1149.92 264.113 1150.96 261.726 1131.62 272.471C1091.81 294.596 1037.22 304.171 998.605 295.801L991.071 294.169L988.849 284.406C981.823 253.535 972.243 235.589 963.91 237.68C956.345 239.58 956.466 243.37 964.878 268.263C975.405 299.413 976.434 308.933 972.713 340.796C961.522 436.654 960.906 445.085 963.203 470.875C965.508 496.726 966.969 495.103 941.832 494.619C922.603 494.251 917.838 492.95 926.005 490.298C937.46 486.579 940.028 482.125 945.496 456.477C951.452 428.544 951.204 418.102 943.386 368.075C934.421 310.699 933.071 306.426 915.63 280.203C900.699 257.755 896.83 240.982 901.008 216.826C903.682 201.368 902.375 197.579 894.359 197.579C886.016 197.579 883.299 204.35 881.522 229.564L880.652 241.909L877.503 234.644C870.523 218.558 866.361 194.11 866.312 168.936C866.226 124.358 850.314 103.615 801.353 84.2536C779.119 75.4613 775.85 72.0394 768.064 49.4092C764.118 37.9422 763.196 38.6388 784.835 36.7567C810.745 34.5028 815.604 33.3156 825.699 26.7807C841.122 16.7943 848.032 15.5826 866.857 19.572ZM1169.57 292.52C1183.87 311.549 1199.06 328.25 1224.79 353.216C1261.48 388.822 1274.65 416.194 1272.33 452.053C1271.32 467.865 1271.45 467.589 1262.21 472.41C1257.9 474.653 1251.83 479.033 1248.7 482.145C1242.82 488.004 1224.25 491.686 1222.75 487.292C1222.3 485.961 1238.71 477.625 1246.46 475.25C1256.49 472.174 1261.35 459.204 1259.18 441.266C1254.14 399.549 1238.25 372.365 1194.87 331.249C1177.86 315.124 1150.04 285.486 1150.04 283.484C1150.04 282.496 1157.35 278.064 1158.38 278.433C1158.84 278.599 1163.88 284.94 1169.57 292.52ZM999.376 328.18C1000.68 347.243 999.441 370.614 995.097 408.784C990.722 447.253 991.12 456.161 998.238 479.021C998.924 481.225 985.079 481.41 982.544 479.231C977.783 475.137 979.36 437.143 986.986 372.257C989.505 350.828 991.991 328.845 992.511 323.405C994.133 306.467 998.079 309.211 999.376 328.18Z" fill="#FBC2B1"/>
<path d="M866.857 19.572C890.656 24.6141 897.951 31.5819 909.828 60.6178C916.31 76.4669 916.276 78.3717 909.21 93.2344C891.66 130.158 869.261 118.567 882.852 79.5956C890.365 58.0531 887.318 36.631 876.742 36.631C869.109 36.631 867.447 39.8627 868.512 52.6286C869.348 62.6727 869.069 64.5495 864.981 76.3395C848.958 122.562 884.769 155.425 913.102 120.496C916.745 116.006 921.614 108.951 923.923 104.818L928.12 97.3076L936.441 106.002C968.317 139.312 994.804 145.239 1109.12 144.642C1188.78 144.227 1208.42 145.003 1229.14 149.396C1244.66 152.685 1257.96 152.158 1270.85 147.743C1310.83 134.041 1351.3 113.689 1376.83 94.4496L1385.32 88.0457L1375.78 97.9082C1358.85 115.384 1333.8 132.62 1300.46 149.717C1279.53 160.455 1276.19 168.013 1282.94 189.377C1289.48 210.087 1290.54 240.05 1285.58 263.732C1278.77 296.168 1280.77 310.164 1298.34 353.073L1305.88 371.485L1305.01 393.309C1302.32 461.077 1302.35 466.191 1305.46 479.24C1309.41 495.771 1309.67 495.569 1282.84 496.726C1256.17 497.879 1255.1 496.566 1274.65 486.696C1287.97 479.976 1289.63 475.523 1289.62 446.504C1289.62 401.79 1278.96 381.582 1228.87 331.249C1174.59 276.703 1152.27 241.368 1142.65 194.744C1141.06 187.067 1127.9 186.763 1126 194.36C1123.96 202.476 1131.18 226.77 1142.09 248.521C1149.92 264.113 1150.96 261.726 1131.62 272.471C1091.81 294.596 1037.22 304.171 998.605 295.801L991.071 294.169L988.849 284.406C981.823 253.535 972.243 235.589 963.91 237.68C956.345 239.58 956.466 243.37 964.878 268.263C975.405 299.413 976.434 308.933 972.713 340.796C961.522 436.654 960.906 445.085 963.203 470.875C965.508 496.726 966.969 495.103 941.832 494.619C922.603 494.251 917.838 492.95 926.005 490.298C937.46 486.579 940.028 482.125 945.496 456.477C951.452 428.544 951.204 418.102 943.386 368.075C934.421 310.699 933.071 306.426 915.63 280.203C900.699 257.755 896.83 240.982 901.008 216.826C903.682 201.368 902.375 197.579 894.359 197.579C886.016 197.579 883.299 204.35 881.522 229.564L880.652 241.909L877.503 234.644C870.523 218.558 866.361 194.11 866.312 168.936C866.226 124.358 850.314 103.615 801.353 84.2536C779.119 75.4613 775.85 72.0394 768.064 49.4092C764.118 37.9422 763.196 38.6388 784.835 36.7567C810.745 34.5028 815.604 33.3156 825.699 26.7807C841.122 16.7943 848.032 15.5826 866.857 19.572Z" fill="#FBC2B1"/>
</svg>
