<svg width="133" height="48" viewBox="0 0 133 48" fill="none" xmlns="http://www.w3.org/2000/svg">
<path fill-rule="evenodd" clip-rule="evenodd" d="M38.3027 18.355C38.6121 18.5021 39.0415 18.743 39.2568 18.8903C39.6221 19.1404 39.6943 19.1627 40.34 19.2252C41.6721 19.3542 42.7516 19.7702 43.7469 20.5381C44.3049 20.9685 44.5826 21.2917 46.7734 24.0611L48.7432 26.5509L51.2025 26.965C55.6281 27.7101 56.6895 27.6863 58.4453 26.8024C59.3672 26.3383 59.3958 26.2516 58.6806 26.0899C57.9668 25.9286 57.2784 26.1634 56.6002 26.7996C56.1413 27.2299 55.8503 27.315 55.5888 27.0952C54.7131 26.3588 54.0153 25.7133 53.8756 25.5101C51.4207 21.9417 56.8815 18.0078 61.266 20.1861C64.1857 21.6368 65.4785 25.4167 64.0317 28.2724L63.9035 28.5255L64.4317 29.2155C66.9946 32.5625 67.5581 35.1711 66.5852 39.1858L66.3114 40.3156L66.5702 40.621C67.506 41.7253 67.4956 41.6641 67.2681 44.7246C67.0926 47.086 66.898 47.5285 65.8738 47.8948C65.4323 48.0528 63.1914 48.0261 62.9191 47.8597C62.249 47.45 62.7213 46.1985 63.7349 45.6982L64.1643 45.4862L64.2117 44.9164C64.3484 43.2719 64.2036 43.0467 62.1323 41.678C60.3733 40.5158 60.0032 40.1648 59.2868 38.9788C58.238 37.2426 57.1291 36.8817 55.6368 37.7906C54.2094 38.66 53.2259 38.7684 49.866 38.4265C48.776 38.3155 47.8211 38.2247 47.7438 38.2245C47.605 38.2244 47.6031 38.2486 47.5614 40.6351C47.5098 43.5959 47.5571 43.3784 46.5014 45.5029C45.2575 48.0059 45.2767 47.9916 43.1607 47.9916C41.6908 47.9915 41.5227 47.9463 41.3077 47.492C40.9825 46.8048 41.4759 45.997 42.4678 45.5928L42.8388 45.4417L43.1582 44.264L42.5429 37.667L41.8881 36.96C39.7595 34.6614 39.5647 34.2592 38.583 30.1349C38.2443 28.712 37.9528 27.498 37.9352 27.437C37.9074 27.3404 37.7389 27.323 36.6124 27.3007C34.7643 27.2642 34.4377 27.0994 33.5373 25.7488C32.7004 24.4934 32.7043 24.4845 34.5284 23.534L35.7451 22.9L35.9548 21.9268C36.1858 20.8542 36.1925 20.8426 36.8306 20.3921C37.072 20.2216 37.2802 20.0741 37.2931 20.0643C37.306 20.0544 37.2206 19.7369 37.1034 19.3587C36.7149 18.1048 37.0994 17.783 38.3027 18.355ZM38.6854 20.4919C38.9667 21.3853 38.9753 21.6048 38.7379 21.8254C38.4103 22.1298 37.9898 21.992 37.7841 21.5129L37.6728 21.2536L37.2241 21.54L37.4317 21.7028C37.8221 22.0092 37.6196 22.7316 37.1432 22.7316C36.9956 22.7316 36.9675 22.7749 36.8916 23.1189C36.7765 23.64 36.646 23.7544 35.4559 24.3761C34.9016 24.6656 34.4374 24.9123 34.4242 24.9244C34.3479 24.9943 35.0184 25.7962 35.2842 25.9529C35.5871 26.1315 35.6052 26.1335 37.0753 26.1565C39.1944 26.1896 39.7443 26.0266 40.6516 25.0967C41.2072 24.5274 41.4532 24.4532 41.7763 24.7576C42.3546 25.3024 41.116 26.6492 39.6042 27.1197C39.3364 27.203 39.1172 27.2925 39.1172 27.3185C39.1172 27.4324 40.2709 32.1701 40.391 32.5496C40.7545 33.6977 41.3196 34.5902 42.4842 35.8555C43.8409 37.3295 43.5996 36.4249 44.0995 41.9114L44.3219 44.3523L44.0906 45.2794C43.8356 46.3015 43.6699 46.5754 43.3043 46.5788C43.1998 46.5798 42.9935 46.638 42.8456 46.7081L42.5769 46.8356L43.4701 46.841C44.327 46.8463 44.3699 46.8399 44.5246 46.6848C44.691 46.5179 46.1615 43.6282 46.2933 43.2091C46.341 43.0576 46.3935 41.3599 46.4402 38.4602C46.524 33.2661 46.4995 33.4419 47.1359 33.4419C47.6167 33.4419 47.649 33.5653 47.649 35.4031V37.0093L47.8002 37.0407C49.2132 37.334 52.9492 37.5314 53.6556 37.3503C54.1592 37.2211 54.3565 37.1345 55.4589 36.5585C56.0464 36.2516 56.8374 36.0937 57.3994 36.1712C57.7674 36.222 57.761 36.23 57.6287 35.885C56.8891 33.9555 57.6125 30.4106 58.7459 30.4106C59.3112 30.4106 59.3895 30.8831 58.9711 31.7688C58.2074 33.3853 58.2796 34.8306 59.2078 36.5067C60.7647 39.3181 60.8435 39.4096 62.8632 40.7497C65.1998 42.3001 65.3876 42.5937 65.3816 44.6883C65.3773 46.2292 65.2693 46.574 64.7893 46.5788C64.6918 46.5798 64.4911 46.638 64.3433 46.7081L64.0746 46.8356L64.7329 46.841C65.9378 46.851 65.9518 46.8273 66.1259 44.4693C66.3126 41.9414 66.3362 42.1771 65.8366 41.5859C64.9721 40.5629 64.9954 40.6843 65.3821 39.2074C66.2662 35.8315 65.9291 33.385 64.244 30.948C62.7716 28.8189 61.7082 27.6683 60.6613 27.0721L60.3926 26.9191L59.9495 27.2563C58.492 28.3655 56.1404 28.8852 53.9185 28.5893C53.1669 28.4892 48.6039 27.7192 48.3075 27.6425C48.0838 27.5846 47.8439 27.3066 45.9003 24.853C43.1757 21.4134 42.7622 21.0288 41.3102 20.5828C40.6827 20.3901 40.6579 20.3934 40.7341 20.6598C40.8993 21.2374 40.7454 21.6284 40.3264 21.6957C40.0288 21.7434 39.7521 21.5434 39.6851 21.232C39.5803 20.7448 38.7694 19.7678 38.4701 19.7678C38.4631 19.7678 38.5601 20.0936 38.6854 20.4919ZM57.1103 20.9304C54.5019 21.7745 53.6882 23.7222 55.2959 25.2732L55.8706 25.8276L56.0762 25.6598C57.6956 24.3383 60.1836 24.8739 62.5945 27.0634L63.0898 27.5132L63.2463 27.059C63.4872 26.3598 63.4726 24.8746 63.2172 24.1124C62.3674 21.5753 59.5898 20.128 57.1103 20.9304ZM38.2412 22.7443C38.3267 22.8364 38.3782 22.9833 38.3782 23.1356C38.3782 23.8971 37.133 24.1682 36.9961 23.4366C36.8855 22.8453 37.8412 22.3139 38.2412 22.7443Z" fill="#FBC2B1"/>
<path fill-rule="evenodd" clip-rule="evenodd" d="M38.6854 20.4919C38.9667 21.3853 38.9753 21.6048 38.7379 21.8254C38.4103 22.1298 37.9898 21.992 37.7841 21.5129L37.6728 21.2536L37.2241 21.54L37.4317 21.7028C37.8221 22.0092 37.6196 22.7316 37.1432 22.7316C36.9956 22.7316 36.9675 22.7749 36.8916 23.1189C36.7765 23.64 36.646 23.7544 35.4559 24.3761C34.9016 24.6656 34.4374 24.9123 34.4242 24.9244C34.3479 24.9943 35.0184 25.7962 35.2842 25.9529C35.5871 26.1315 35.6052 26.1335 37.0753 26.1565C39.1944 26.1896 39.7443 26.0266 40.6516 25.0967C41.2072 24.5274 41.4532 24.4532 41.7763 24.7576C42.3546 25.3024 41.116 26.6492 39.6042 27.1197C39.3364 27.203 39.1172 27.2925 39.1172 27.3185C39.1172 27.4324 40.2709 32.1701 40.391 32.5496C40.7545 33.6977 41.3196 34.5902 42.4842 35.8555C43.8409 37.3295 43.5996 36.4249 44.0995 41.9114L44.3219 44.3523L44.0906 45.2794C43.8356 46.3015 43.6699 46.5754 43.3043 46.5788C43.1998 46.5798 42.9935 46.638 42.8456 46.7081L42.5769 46.8356L43.4701 46.841C44.327 46.8463 44.3699 46.8399 44.5246 46.6848C44.691 46.5179 46.1615 43.6282 46.2933 43.2091C46.341 43.0576 46.3935 41.3599 46.4402 38.4602C46.524 33.2661 46.4995 33.4419 47.1359 33.4419C47.6167 33.4419 47.649 33.5653 47.649 35.4031V37.0093L47.8002 37.0407C49.2132 37.334 52.9492 37.5314 53.6556 37.3503C54.1592 37.2211 54.3565 37.1345 55.4589 36.5585C56.0464 36.2516 56.8374 36.0937 57.3994 36.1712C57.7674 36.222 57.761 36.23 57.6287 35.885C56.8891 33.9555 57.6125 30.4106 58.7459 30.4106C59.3112 30.4106 59.3895 30.8831 58.9711 31.7688C58.2074 33.3853 58.2796 34.8306 59.2078 36.5067C60.7647 39.3181 60.8435 39.4096 62.8632 40.7497C65.1998 42.3001 65.3876 42.5937 65.3816 44.6883C65.3773 46.2292 65.2693 46.574 64.7893 46.5788C64.6918 46.5798 64.4911 46.638 64.3433 46.7081L64.0746 46.8356L64.7329 46.841C65.9378 46.851 65.9518 46.8273 66.1259 44.4693C66.3126 41.9414 66.3362 42.1771 65.8366 41.5859C64.9721 40.5629 64.9954 40.6843 65.3821 39.2074C66.2662 35.8315 65.9291 33.385 64.244 30.948C62.7716 28.8189 61.7082 27.6683 60.6613 27.0721L60.3926 26.9191L59.9495 27.2563C58.492 28.3655 56.1404 28.8852 53.9185 28.5893C53.1669 28.4892 48.6039 27.7192 48.3075 27.6425C48.0838 27.5846 47.8439 27.3066 45.9003 24.853C43.1757 21.4134 42.7622 21.0288 41.3102 20.5828C40.6827 20.3901 40.6579 20.3934 40.7341 20.6598C40.8993 21.2374 40.7454 21.6284 40.3264 21.6957C40.0288 21.7434 39.7521 21.5434 39.6851 21.232C39.5803 20.7448 38.7694 19.7678 38.4701 19.7678C38.4631 19.7678 38.5601 20.0936 38.6854 20.4919ZM38.3782 23.1356C38.3782 22.9833 38.3267 22.8364 38.2412 22.7443C37.8412 22.3139 36.8855 22.8453 36.9961 23.4366C37.133 24.1682 38.3782 23.8971 38.3782 23.1356Z" fill="#FBC2B1"/>
<path d="M57.1103 20.9304C54.5019 21.7745 53.6882 23.7222 55.2959 25.2732L55.8706 25.8276L56.0762 25.6598C57.6956 24.3383 60.1836 24.8739 62.5945 27.0634L63.0898 27.5132L63.2463 27.059C63.4872 26.3598 63.4726 24.8746 63.2172 24.1124C62.3674 21.5753 59.5898 20.128 57.1103 20.9304Z" fill="#FBC2B1"/>
<path fill-rule="evenodd" clip-rule="evenodd" d="M5.79138 33.0682C6.85535 33.3404 8.34255 34.9808 9.21791 36.8479C9.37064 37.1736 10.9657 37.8495 11.906 37.9869C12.2268 38.0337 12.4019 38.0285 12.9623 37.9552C19.9431 37.0422 21.0192 36.9486 21.9076 37.1773C24.1743 37.7608 25.6846 40.1674 24.9867 42.0838C24.9177 42.2732 24.8033 42.5816 24.7325 42.7689C24.6523 42.9813 24.593 43.2592 24.5749 43.5074C24.535 44.0575 24.3466 44.253 23.9975 44.1067C23.6966 43.9806 23.647 43.4106 23.8734 42.6813C24.0098 42.242 23.9723 42.2952 23.6867 42.947C23.3326 43.7547 23.3337 43.764 23.8541 44.3634C24.2348 44.8019 24.2464 44.8967 23.9751 45.3548C23.5611 46.0541 23.1843 47.0367 23.1843 47.417C23.1843 47.6111 23.1041 47.8192 22.9982 47.8999C22.841 48.0196 20.9576 47.9913 20.735 47.8659C20.0135 47.4593 20.2786 46.287 21.1103 46.2069L21.3479 46.184L21.6093 45.6759C21.9577 44.9987 21.9546 44.9844 21.3121 44.2924C21.0402 43.9994 20.737 43.6428 20.6384 43.5L20.4592 43.2403L20.1646 43.2692C18.1207 43.4703 16.7099 43.8004 14.6226 44.5658C12.8928 45.2002 12.341 45.3577 11.8479 45.3577C11.6258 45.3577 11.6479 45.3065 11.5211 46.1138C11.2475 47.8544 11.1402 47.967 9.75515 47.967C8.99216 47.967 8.86992 47.9557 8.70167 47.8696C7.88275 47.4508 8.26235 46.0995 9.19988 46.0964C9.33022 46.096 9.34826 46.0201 9.3115 45.6266L9.27718 45.2591L8.68143 44.9662C6.7387 44.011 5.88898 42.8285 5.08885 39.9667L4.85486 39.1298L4.53803 38.8113C4.14353 38.4147 3.97855 38.1758 3.73709 37.6518C3.50706 37.1527 3.47928 37.1361 2.87196 37.1351C1.67349 37.1334 1.00107 36.7301 0.327578 35.6093C-0.0185323 35.0334 -0.0801251 34.7697 0.0945329 34.6119C0.208604 34.5088 0.254359 34.4996 1.49676 34.3304C2.70171 34.1663 2.79875 34.1282 2.95731 33.7573C3.18552 33.2234 4.83261 32.823 5.79138 33.0682ZM4.36765 33.9097C4.21524 33.9495 4.01727 34.0122 3.92771 34.0492L3.76486 34.1163L3.99829 34.2202C4.7384 34.5501 4.23906 35.2069 3.47192 34.9126C3.21405 34.8136 3.18382 34.8115 3.03562 34.8824C2.84192 34.975 2.53421 35.0366 1.7173 35.1464L1.09371 35.2302L1.1702 35.3784C1.48884 35.9963 1.99654 36.2623 2.92884 36.2998C3.92117 36.3397 4.09137 36.4465 4.49568 37.2836C4.61993 37.5408 4.77623 37.8177 4.84292 37.899L4.96428 38.0467L4.96604 37.8851C4.9683 37.6775 5.11109 37.255 5.38681 36.6398C5.63488 36.0864 5.64525 36.0047 5.50792 35.6835C5.3195 35.2428 5.44199 34.9697 5.82801 34.9697C6.15112 34.9697 6.38681 35.3565 6.42967 35.957C6.45192 36.2695 6.44086 36.3094 6.12768 37.0461C5.76586 37.8972 5.74826 37.9991 5.92663 38.2116C6.31975 38.6801 7.28763 38.1338 7.39636 37.382C7.50678 36.619 8.31854 36.6908 8.23124 37.4559C8.09781 38.6249 6.58535 39.6454 5.75184 39.1288C5.70647 39.1007 5.71401 39.129 6.1048 40.4588C6.63513 42.2629 7.40339 43.3091 8.76087 44.0754C9.05488 44.2413 9.08681 44.2342 8.96953 44.0284C8.76175 43.664 9.12414 43.2704 9.50664 43.4452C9.81354 43.5854 10.1234 44.7944 10.1356 45.8993C10.1442 46.6785 10.0961 46.7368 9.28874 46.9241C9.18806 46.9474 9.11038 46.9983 9.10101 47.047C9.08668 47.1217 9.15406 47.1301 9.77199 47.1301H10.4589L10.565 46.677C10.8674 45.3856 10.9517 43.6129 10.7414 42.9702C10.6007 42.5401 10.7549 42.2823 11.1336 42.3144C11.4844 42.3441 11.6409 42.781 11.6814 43.8438L11.7072 44.5208H11.8665C12.1659 44.5208 12.9466 44.2858 14.3707 43.7671C16.4299 43.017 17.5185 42.7526 19.6816 42.4772L19.9351 42.4449L19.637 41.8759C19.2108 41.0622 19.2372 40.6609 19.717 40.6609C19.9486 40.6609 20.0239 40.7386 20.2352 41.1956C20.645 42.0818 21.3141 43.0704 21.9853 43.7814C22.8637 44.7119 22.8959 45.0825 22.2085 46.3517C21.8674 46.9816 21.8068 47.0316 21.3848 47.0316C21.2672 47.0316 21.1711 47.0544 21.1711 47.0824C21.1711 47.1151 21.3816 47.1282 21.7665 47.1192L22.3619 47.1054L22.4472 46.7854C22.5682 46.3319 22.7552 45.8604 23.0079 45.3723L23.2261 44.9508L22.9894 44.6656C22.4915 44.0657 22.4733 43.6095 22.9082 42.6316C23.6253 41.0197 23.8026 39.9214 23.4565 39.2365C23.0796 38.4905 22.1091 37.9592 20.9993 37.8912C20.5134 37.8615 16.7728 38.2795 13.6096 38.717C11.8578 38.9593 11.0737 38.8285 9.4074 38.0162C8.71745 37.6799 8.72493 37.6875 8.24733 36.8405C6.8233 34.315 5.79376 33.5372 4.36765 33.9097ZM23.9975 42.2314C23.9764 42.293 23.9905 42.2838 24.0354 42.2068C24.1235 42.0555 24.3143 41.4807 24.3117 41.3741C24.3107 41.3311 24.2472 41.4843 24.1706 41.7145C24.0941 41.9447 24.0161 42.1773 23.9975 42.2314Z" fill="#FBC2B1"/>
<path fill-rule="evenodd" clip-rule="evenodd" d="M77.4242 0.206064C77.0754 0.335105 76.4267 0.679267 75.9825 0.971032C75.5383 1.26263 74.9963 1.53178 74.778 1.56904C74.3523 1.64178 70.5995 2.01572 70.2964 2.01572C69.4007 2.01572 69.1787 3.24006 69.7594 4.97812C70.6963 7.78186 71.2417 8.3636 73.9515 9.4493C76.5991 10.5103 77.5567 11.2084 78.2596 12.5897C78.7174 13.4897 78.7733 13.81 78.8862 16.1905C79.1357 21.4436 80.4121 24.5931 82.9746 26.2786C83.6752 26.7394 84.8814 28.7556 85.2715 30.1177C85.624 31.3489 86.6375 38.2396 86.6352 39.3914C86.6314 41.5363 85.9587 44.0243 85.3465 44.1592C84.1089 44.4318 83.5577 46.0643 84.3586 47.0852C85.2981 48.2828 90.2064 48.0705 90.9905 46.7985L91.2441 46.3871L92.2716 46.4649C94.409 46.6266 95.1521 45.7264 94.3559 43.9402C93.796 42.684 93.7634 41.6901 94.1673 38.1837C94.4597 35.646 94.5342 34.4517 94.5372 32.2571L94.5406 29.5088L96.6326 29.4367C99.5704 29.3357 101.967 28.7854 104.422 27.6481L105.342 27.2219L106.522 28.6117C107.171 29.3762 108.609 30.87 109.719 31.9315C113.537 35.5853 114.863 37.6898 115.329 40.8401C115.58 42.5346 115.537 42.6293 114.278 43.1245C111.002 44.4129 111.104 47.265 114.423 47.1763C115.653 47.1434 115.685 47.1499 116.105 47.5197C116.681 48.0269 117.009 48.0658 119.534 47.9257C122.998 47.7335 123.609 47.1153 123.01 44.4103C122.73 43.1451 122.722 42.9678 122.829 40.318C122.891 38.7945 122.941 36.7471 122.941 35.7683V33.9885L122.099 31.891C120.72 28.458 120.594 27.5812 121.113 25.0259C121.619 22.5302 121.498 19.0865 120.834 17.1011C120.483 16.0525 120.531 15.9858 122.243 15.1206C127.821 12.3033 131.534 8.60037 132.753 4.64014C133.496 2.22678 132.44 1.11586 131.225 3.03275C129.231 6.1787 125.237 9.12092 120.081 11.2424C116.923 12.5417 116.323 12.6529 114.51 12.2731C112.567 11.8661 110.544 11.7867 103.172 11.8277C90.6798 11.8975 88.4284 10.9631 85.9934 4.69807C85.1185 2.44727 84.4197 1.58662 82.876 0.858752C81.1959 0.0664471 78.6318 -0.240452 77.4242 0.206064ZM80.5792 1.8242C82.7916 2.29414 83.4696 2.94358 84.5737 5.64985C85.1763 7.12706 85.173 7.30459 84.5162 8.68987C82.8849 12.1313 80.8027 11.051 82.0661 7.41866C82.7645 5.4108 82.4813 3.41418 81.4981 3.41418C80.7886 3.41418 80.6341 3.71538 80.7331 4.90522C80.8108 5.84137 80.7849 6.0163 80.4049 7.11518C78.9154 11.4233 82.2443 14.4863 84.878 11.2308C85.2167 10.8123 85.6693 10.1547 85.8839 9.76954L86.274 9.0695L87.0475 9.87987C90.0106 12.9845 92.4727 13.5369 103.099 13.4813C110.504 13.4426 112.329 13.515 114.256 13.9244C115.698 14.231 116.935 14.1818 118.133 13.7703C121.849 12.4932 125.611 10.5963 127.984 8.80312L128.774 8.20625L127.886 9.12548C126.313 10.7544 123.985 12.3608 120.886 13.9543C118.939 14.9551 118.629 15.6595 119.256 17.6508C119.864 19.581 119.963 22.3737 119.502 24.581C118.869 27.6041 119.055 28.9087 120.688 32.908L121.389 34.6241L121.308 36.6581C121.058 42.9744 121.06 43.4511 121.35 44.6673C121.717 46.2081 121.742 46.1892 119.248 46.2971C116.768 46.4045 116.669 46.2821 118.486 45.3623C119.724 44.7359 119.878 44.3208 119.878 41.6162C119.877 37.4486 118.887 35.5651 114.231 30.8739C109.185 25.7899 107.11 22.4965 106.215 18.151C106.068 17.4355 104.845 17.4072 104.668 18.1152C104.479 18.8717 105.15 21.136 106.164 23.1632C106.891 24.6165 106.988 24.3941 105.191 25.3955C101.489 27.4577 96.4152 28.3501 92.826 27.57L92.1257 27.4178L91.9191 26.5079C91.266 23.6306 90.3755 21.9579 89.6009 22.1529C88.8977 22.3299 88.9089 22.6832 89.6908 25.0033C90.6695 27.9066 90.7651 28.794 90.4192 31.7637C89.3789 40.6981 89.3216 41.4839 89.5352 43.8876C89.7494 46.2971 89.8853 46.1458 87.5486 46.1007C85.7612 46.0664 85.3183 45.9451 86.0775 45.698C87.1422 45.3514 87.381 44.9362 87.8893 42.5457C88.4428 39.9422 88.4198 38.969 87.6931 34.3063C86.8597 28.9585 86.7342 28.5603 85.113 26.1162C83.7251 24.0239 83.3654 22.4606 83.7538 20.2091C84.0024 18.7684 83.8809 18.4153 83.1358 18.4153C82.3602 18.4153 82.1077 19.0463 81.9425 21.3964L81.8616 22.547L81.5689 21.8699C80.92 20.3706 80.5331 18.0919 80.5286 15.7456C80.5206 11.5908 79.0415 9.65742 74.4903 7.85281C72.4235 7.03333 72.1197 6.71439 71.3959 4.60516C71.0291 3.53638 70.9434 3.60131 72.9548 3.42589C75.3634 3.21582 75.815 3.10516 76.7534 2.49609C78.1871 1.5653 78.8294 1.45237 80.5792 1.8242ZM108.719 27.2642C110.047 29.0377 111.459 30.5944 113.851 32.9213C117.261 36.2399 118.485 38.7911 118.271 42.1333C118.176 43.6071 118.189 43.5814 117.329 44.0307C116.929 44.2398 116.364 44.6481 116.074 44.938C115.527 45.4841 113.801 45.8273 113.662 45.4177C113.619 45.2938 115.145 44.5167 115.865 44.2954C116.798 44.0087 117.249 42.7998 117.048 41.128C116.58 37.2397 115.103 34.7061 111.07 30.8739C109.488 29.371 106.903 26.6086 106.903 26.4219C106.903 26.3298 107.583 25.9169 107.678 25.9512C107.721 25.9666 108.189 26.5577 108.719 27.2642ZM92.8977 30.5879C93.0189 32.3646 92.9037 34.5429 92.4999 38.1005C92.0932 41.686 92.1302 42.5162 92.7919 44.6469C92.8557 44.8523 91.5687 44.8695 91.3331 44.6665C90.8905 44.2849 91.037 40.7436 91.7459 34.696C91.9801 32.6987 92.2112 30.6499 92.2596 30.1428C92.4103 28.5641 92.7771 28.8199 92.8977 30.5879Z" fill="#FBC2B1"/>
</svg>
