<svg width="39" height="40" viewBox="0 0 39 40" fill="none" xmlns="http://www.w3.org/2000/svg">
<path d="M6.67121 34.5206C0.770082 34.5206 3.65751 25.9012 3.65751 20C3.65751 14.0989 0.770082 5.47949 6.67121 5.47949C12.5723 5.47949 22.0137 14.3729 22.0137 20.274C22.0137 26.1751 12.5723 34.5206 6.67121 34.5206Z" fill="#DFDCE5"/>
<path d="M3.65751 20C3.53231 17.5343 0.643809 14.8357 0.643809 11.5069C0.643809 8.17805 3.34237 5.47949 6.67121 5.47949C10 5.47949 12.6986 8.17805 12.6986 11.5069C12.6986 14.8357 6.98635 20 3.65751 20Z" fill="#DFDCE5"/>
<path d="M6.67121 34.5206C3.34237 34.5206 0.643809 31.822 0.643809 28.4932C0.643809 25.1644 3.48176 23.0137 3.65751 20C6.98635 20 12.6986 25.1644 12.6986 28.4932C12.6986 31.822 10 34.5206 6.67121 34.5206Z" fill="#DFDCE5"/>
<ellipse cx="30.5068" cy="13.9726" rx="5.75343" ry="8.49315" transform="rotate(90 30.5068 13.9726)" fill="#DFDCE5"/>
<ellipse cx="30.5068" cy="26.5753" rx="5.75343" ry="8.49315" transform="rotate(90 30.5068 26.5753)" fill="#DFDCE5"/>
<ellipse cx="20.37" cy="35.3425" rx="4.65753" ry="6.57534" transform="rotate(90 20.37 35.3425)" fill="#DFDCE5"/>
<ellipse cx="20.37" cy="4.65753" rx="4.65753" ry="6.57534" transform="rotate(90 20.37 4.65753)" fill="#DFDCE5"/>
</svg>
